<svg width="40" height="40" viewBox="0 0 40 40" fill="none" xmlns="http://www.w3.org/2000/svg">
<path d="M35.4 23.3006C31.4509 23.3006 31.4509 21.3742 27.5982 21.3742C23.6491 21.3742 23.6491 23.3006 19.7963 23.3006C15.8472 23.3006 15.8472 21.3742 11.8982 21.3742C7.94908 21.3742 7.94908 23.3006 4 23.3006" stroke="#2C001B" stroke-width="1.5" stroke-miterlimit="10" stroke-linecap="round" stroke-linejoin="round"/>
<path d="M35.4 20.411C31.4509 20.411 31.4509 18.4847 27.5982 18.4847C23.6491 18.4847 23.6491 20.411 19.7963 20.411C15.8472 20.411 15.8472 18.4847 11.8982 18.4847C7.94908 18.4847 7.94908 20.411 4 20.411" stroke="#2C001B" stroke-width="1.5" stroke-miterlimit="10" stroke-linecap="round" stroke-linejoin="round"/>
<path d="M20.1815 15.3061C18.8331 15.3061 17.7736 14.2466 17.7736 12.8981" stroke="#2C001B" stroke-width="1.5" stroke-miterlimit="10" stroke-linecap="round" stroke-linejoin="round"/>
<path d="M23.4564 13.4761C23.4564 14.1503 23.2637 14.7282 22.9748 15.2098C22.3005 16.4619 21.0484 17.2325 19.6036 17.2325C17.4846 17.2325 15.7509 15.4988 15.7509 13.3797C15.7509 11.2607 19.6036 5 19.6036 5C19.6036 5 21.0484 7.31164 22.1079 9.6233C22.8785 11.1644 23.4564 12.6092 23.4564 13.4761Z" fill="url(#paint0_linear_17_4348)" stroke="#2C001B" stroke-width="1.5" stroke-miterlimit="10" stroke-linecap="round" stroke-linejoin="round"/>
<path d="M8.14172 7.69691V15.4988" stroke="#2C001B" stroke-width="1.5" stroke-miterlimit="10" stroke-linecap="round" stroke-linejoin="round"/>
<path d="M10.1644 13.3797L8.14172 15.4988L6.11902 13.3797" stroke="#2C001B" stroke-width="1.5" stroke-miterlimit="10" stroke-linecap="round" stroke-linejoin="round"/>
<path d="M31.162 7.69691V15.4988" stroke="#2C001B" stroke-width="1.5" stroke-miterlimit="10" stroke-linecap="round" stroke-linejoin="round"/>
<path d="M33.281 13.3797L31.162 15.4988L29.1393 13.3797" stroke="#2C001B" stroke-width="1.5" stroke-miterlimit="10" stroke-linecap="round" stroke-linejoin="round"/>
<path d="M28.2723 32.8362C28.2723 33.1251 28.176 33.4141 28.0797 33.703C27.7907 34.281 27.2128 34.6662 26.5386 34.6662C25.5754 34.6662 24.7085 33.8957 24.7085 32.8362C24.7085 31.873 26.5386 28.8871 26.5386 28.8871C26.5386 28.8871 27.2128 29.9466 27.6944 31.1024C27.9833 31.7767 28.2723 32.4509 28.2723 32.8362Z" fill="url(#paint1_linear_17_4348)" stroke="#2C001B" stroke-width="1.5" stroke-miterlimit="10" stroke-linecap="round" stroke-linejoin="round"/>
<path d="M21.4337 29.9466C21.4337 30.2356 21.3374 30.5245 21.241 30.8135C20.9521 31.3914 20.3742 31.7767 19.6999 31.7767C18.7367 31.7767 17.8699 31.0061 17.8699 29.9466C17.8699 28.9834 19.6999 25.9975 19.6999 25.9975C19.6999 25.9975 20.3742 27.057 20.8558 28.2128C21.1447 28.8871 21.4337 29.5613 21.4337 29.9466Z" stroke="#2C001B" stroke-width="1.5" stroke-miterlimit="10" stroke-linecap="round" stroke-linejoin="round"/>
<path d="M35.0146 29.9466C35.0146 30.2356 34.9183 30.5245 34.822 30.8135C34.533 31.3914 33.9551 31.7767 33.2809 31.7767C32.3177 31.7767 31.4508 31.0061 31.4508 29.9466C31.4508 28.9834 33.2809 25.9975 33.2809 25.9975C33.2809 25.9975 33.9551 27.057 34.4367 28.2128C34.7257 28.8871 35.0146 29.5613 35.0146 29.9466Z" stroke="#2C001B" stroke-width="1.5" stroke-miterlimit="10" stroke-linecap="round" stroke-linejoin="round"/>
<path d="M14.6914 32.8362C14.6914 33.1251 14.595 33.4141 14.4987 33.703C14.2098 34.281 13.6319 34.6662 12.9576 34.6662C11.9944 34.6662 11.1276 33.8957 11.1276 32.8362C11.1276 31.873 12.9576 28.8871 12.9576 28.8871C12.9576 28.8871 13.6318 29.9466 14.1134 31.1024C14.4024 31.7767 14.6914 32.4509 14.6914 32.8362Z" fill="url(#paint2_linear_17_4348)" stroke="#2C001B" stroke-width="1.5" stroke-miterlimit="10" stroke-linecap="round" stroke-linejoin="round"/>
<path d="M7.85274 29.9466C7.85274 30.2356 7.75642 30.5245 7.6601 30.8135C7.37115 31.3914 6.79323 31.7767 6.119 31.7767C5.15581 31.7767 4.28894 31.0061 4.28894 29.9466C4.28894 28.9834 6.119 25.9975 6.119 25.9975C6.119 25.9975 6.79324 27.057 7.27483 28.2129C7.56379 28.8871 7.85274 29.5613 7.85274 29.9466Z" stroke="#2C001B" stroke-width="1.5" stroke-miterlimit="10" stroke-linecap="round" stroke-linejoin="round"/>
<defs>
<linearGradient id="paint0_linear_17_4348" x1="19.6036" y1="5" x2="19.6036" y2="17.2325" gradientUnits="userSpaceOnUse">
<stop stop-color="#FF84B7"/>
<stop offset="0.46875" stop-color="#EF5997"/>
<stop offset="1" stop-color="#E84287"/>
</linearGradient>
<linearGradient id="paint1_linear_17_4348" x1="26.4904" y1="28.8871" x2="26.4904" y2="34.6662" gradientUnits="userSpaceOnUse">
<stop stop-color="#FF84B7"/>
<stop offset="0.46875" stop-color="#EF5997"/>
<stop offset="1" stop-color="#E84287"/>
</linearGradient>
<linearGradient id="paint2_linear_17_4348" x1="12.9095" y1="28.8871" x2="12.9095" y2="34.6662" gradientUnits="userSpaceOnUse">
<stop stop-color="#FF84B7"/>
<stop offset="0.46875" stop-color="#EF5997"/>
<stop offset="1" stop-color="#E84287"/>
</linearGradient>
</defs>
</svg>
