<svg width="40" height="40" viewBox="0 0 40 40" fill="none" xmlns="http://www.w3.org/2000/svg">
<rect x="4" y="26" width="32" height="4" fill="url(#paint0_linear_17_4990)"/>
<path d="M36.0372 10H4V30.5H36.0372V10Z" stroke="#2C001B" stroke-width="1.5" stroke-miterlimit="10" stroke-linecap="round" stroke-linejoin="round"/>
<path d="M4 25.9233H36.0372" stroke="#2C001B" stroke-width="1.5" stroke-miterlimit="10" stroke-linecap="round" stroke-linejoin="round"/>
<path d="M16.4907 16.6744C15.8233 18.2 14.3931 19.2489 12.5814 19.2489C10.7698 19.2489 9.33956 18.2 8.67212 16.6744" stroke="#2C001B" stroke-width="1.5" stroke-miterlimit="10" stroke-linecap="round" stroke-linejoin="round"/>
<path d="M12.5814 19.3442V20.7744" stroke="#2C001B" stroke-width="1.5" stroke-miterlimit="10" stroke-linecap="round" stroke-linejoin="round"/>
<path d="M14.107 19.0581L14.8698 20.5837" stroke="#2C001B" stroke-width="1.5" stroke-miterlimit="10" stroke-linecap="round" stroke-linejoin="round"/>
<path d="M11.0558 19.0581L10.293 20.5837" stroke="#2C001B" stroke-width="1.5" stroke-miterlimit="10" stroke-linecap="round" stroke-linejoin="round"/>
<path d="M15.9186 17.8186L16.6814 19.3442" stroke="#2C001B" stroke-width="1.5" stroke-miterlimit="10" stroke-linecap="round" stroke-linejoin="round"/>
<path d="M9.24419 17.8186L8.48138 19.3442" stroke="#2C001B" stroke-width="1.5" stroke-miterlimit="10" stroke-linecap="round" stroke-linejoin="round"/>
<path d="M31.3652 16.6744C30.6977 18.2 29.2675 19.2489 27.4558 19.2489C25.6442 19.2489 24.214 18.2 23.5466 16.6744" stroke="#2C001B" stroke-width="1.5" stroke-miterlimit="10" stroke-linecap="round" stroke-linejoin="round"/>
<path d="M27.4558 19.3442V20.7744" stroke="#2C001B" stroke-width="1.5" stroke-miterlimit="10" stroke-linecap="round" stroke-linejoin="round"/>
<path d="M28.9814 19.0581L29.7443 20.5837" stroke="#2C001B" stroke-width="1.5" stroke-miterlimit="10" stroke-linecap="round" stroke-linejoin="round"/>
<path d="M25.9303 19.0581L25.2628 20.5837" stroke="#2C001B" stroke-width="1.5" stroke-miterlimit="10" stroke-linecap="round" stroke-linejoin="round"/>
<path d="M30.8884 17.8186L31.5558 19.3442" stroke="#2C001B" stroke-width="1.5" stroke-miterlimit="10" stroke-linecap="round" stroke-linejoin="round"/>
<path d="M24.1186 17.8186L23.3558 19.3442" stroke="#2C001B" stroke-width="1.5" stroke-miterlimit="10" stroke-linecap="round" stroke-linejoin="round"/>
<defs>
<linearGradient id="paint0_linear_17_4990" x1="20" y1="26" x2="20" y2="30" gradientUnits="userSpaceOnUse">
<stop stop-color="#FF84B7"/>
<stop offset="0.46875" stop-color="#EF5997"/>
<stop offset="1" stop-color="#E84287"/>
</linearGradient>
</defs>
</svg>
